<?xml version="1.0" encoding="UTF-8" standalone="no"?>
<svg
   xmlns:dc="http://purl.org/dc/elements/1.1/"
   xmlns:cc="http://creativecommons.org/ns#"
   xmlns:rdf="http://www.w3.org/1999/02/22-rdf-syntax-ns#"
   xmlns:svg="http://www.w3.org/2000/svg"
   xmlns="http://www.w3.org/2000/svg"
   xmlns:sodipodi="http://sodipodi.sourceforge.net/DTD/sodipodi-0.dtd"
   xmlns:inkscape="http://www.inkscape.org/namespaces/inkscape"
   width="210mm"
   height="297mm"
   viewBox="0 0 210 297"
   version="1.1"
   id="svg8"
   inkscape:version="1.0.1 (0767f8302a, 2020-10-17)"
   sodipodi:docname="imagen vectorial.svg">
  <defs
     id="defs2" />
  <sodipodi:namedview
     id="base"
     pagecolor="#ffffff"
     bordercolor="#666666"
     borderopacity="1.0"
     inkscape:pageopacity="0.0"
     inkscape:pageshadow="2"
     inkscape:zoom="0.35"
     inkscape:cx="768.2084"
     inkscape:cy="550"
     inkscape:document-units="mm"
     inkscape:current-layer="layer1"
     inkscape:document-rotation="0"
     showgrid="false"
     inkscape:window-width="1853"
     inkscape:window-height="1025"
     inkscape:window-x="67"
     inkscape:window-y="27"
     inkscape:window-maximized="1" />
  <metadata
     id="metadata5">
    <rdf:RDF>
      <cc:Work
         rdf:about="">
        <dc:format>image/svg+xml</dc:format>
        <dc:type
           rdf:resource="http://purl.org/dc/dcmitype/StillImage" />
        <dc:title></dc:title>
      </cc:Work>
    </rdf:RDF>
  </metadata>
  <g
     inkscape:label="Capa 1"
     inkscape:groupmode="layer"
     id="layer1">
    <rect
       style="fill:#0000ff;fill-rule:evenodd;stroke-width:0.264583"
       id="rect88"
       width="1248.4408"
       height="594.19501"
       x="-422.94525"
       y="-160.58833" />
    <path
       style="fill:#000000;fill-opacity:1;fill-rule:nonzero;stroke:none;stroke-width:0.264583"
       id="path90"
       d="m -410.81002,-116.36034 c 0.70919,3.27007 1.24209,6.55847 1.55925,9.8892 0.30995,4.97672 0.40587,9.957592 0.89781,14.922262 0.39338,4.048213 0.88865,8.08763 1.50151,12.108564 0.61923,3.73004 1.57617,7.373593 2.75293,10.96256 1.03815,3.08654 1.73014,6.269236 2.61522,9.401368 1.04961,3.794819 1.37322,7.725537 1.58933,11.640355 0.17108,4.463661 0.18751,8.932783 0.176,13.399285 0.0496,4.09502 0.49832,8.159536 0.93163,12.225922 0.5285,3.26157 1.01766,6.528647 1.59903,9.781427 0.66426,3.9626116 1.11353,7.9565658 1.68407,11.93248413 0.54497,3.72075837 1.02048,7.45001517 1.5312,11.17537487 0.36388,3.273623 0.81217,6.531399 1.26585,9.793078 0.0483,2.472658 0.67818,4.739954 1.5382,7.030667 0.7021,2.269873 1.53337,4.502528 2.52469,6.661949 0.71101,2.120638 2.02636,3.980846 2.75989,6.082479 0.39317,1.488488 0.35796,3.024579 0.90234,4.474258 2.16423,4.079451 5.5414,-1.795748 10.57507,-4.957477 0,-5.29e-4 0.0536,-1.064958 0.0704,-1.403114 0,0 -10.06962,5.002262 -10.06962,5.002262 v 0 c -0.034,0.209593 -0.0446,0.424395 -0.10213,0.62878 -0.0406,0.144306 -0.32488,0.472919 -0.18986,0.407736 3.29176,-1.589188 6.4988,-3.348191 9.7482,-5.022289 -0.0723,0.185907 -0.0201,0.132996 -0.18394,-0.125714 -0.52964,-1.427279 -0.41722,-3.002836 -0.95985,-4.433792 -0.8028,-2.108155 -2.07659,-4.007856 -2.82274,-6.147213 -0.97451,-2.140691 -1.78236,-4.353562 -2.4766,-6.600402 -0.83307,-2.210509 -1.34509,-4.427251 -1.45434,-6.801232 -0.48445,-3.240828 -0.95472,-6.480748 -1.34795,-9.7346123 -0.4736,-3.7352152 -0.93866,-7.4710882 -1.52796,-11.190558 -0.56785,-3.9875423 -1.03484,-7.9902297 -1.68418,-11.9661477 -0.52658,-3.242974 -1.00354,-6.493344 -1.55514,-9.732076 -0.46736,-4.012478 -0.88731,-8.029731 -0.95925,-12.073421 -0.0103,-4.498642 0.0606,-8.9998 -0.1328,-13.49587 -0.25699,-3.984413 -0.66436,-7.978391 -1.68883,-11.848851 -0.84275,-3.15849 -1.53959,-6.360443 -2.65621,-9.438222 -1.14501,-3.535891 -2.0543,-7.132163 -2.66051,-10.80223 -0.5823,-3.998561 -1.14374,-8.000916 -1.54438,-12.022561 -0.47439,-4.967249 -0.58541,-9.949539 -0.87241,-14.928969 -0.3013,-3.39235 -0.81912,-6.73837 -1.4369,-10.08694 0,0 -9.89703,5.29168 -9.89703,5.29168 z" />
    <path
       style="fill:#000000;fill-opacity:1;fill-rule:nonzero;stroke:none;stroke-width:0.264583"
       id="path92"
       d="m -314.35362,-80.051853 c -2.20628,2.463083 -4.21685,5.088823 -6.18715,7.742052 -2.0447,3.047727 -3.72137,6.324028 -5.1951,9.679805 -1.57488,3.21351 -3.00699,6.497489 -4.59925,9.701797 -1.36877,3.142424 -3.56256,5.788895 -5.34355,8.686652 -2.04417,2.986113 -3.54912,6.266388 -5.09789,9.520639 -2.03589,3.86992 -3.59288,7.964614 -5.28804,11.989701 -1.34313,3.837133 -2.79844,7.632454 -4.22341,11.439646 -1.32257,3.4762335 -3.16182,6.7229758 -4.84452,10.0319724 -1.89868,3.5031296 -3.49284,7.1482105 -5.15009,10.7665457 -1.8756,3.5635799 -3.89128,7.0505359 -5.80726,10.5924909 -1.53077,2.832368 -3.15378,5.606221 -4.56171,8.503296 -1.02732,2.015085 -1.75159,4.118885 -2.39791,6.276387 -0.69263,1.878481 -1.00698,3.879446 -2.15228,5.553771 -3.92483,1.340501 -0.72324,0.28825 8.66261,-5.213011 0,0 -9.02888,6.737651 -9.02888,6.737651 v 0 c 10.44956,-5.64089 8.13232,-2.282176 10.61779,-6.092478 0.88736,-1.849511 1.35112,-3.845946 2.02599,-5.777225 0.63492,-2.096367 1.45037,-4.113599 2.41578,-6.082235 1.42335,-2.860354 3.03874,-5.614563 4.52792,-8.44057 1.91921,-3.545377 3.93866,-7.0380202 5.74273,-10.6442741 1.65245,-3.6115549 3.32099,-7.2132483 5.17644,-10.7270855 1.7095,-3.3409435 3.57206,-6.6243834 4.83433,-10.1708104 1.3815,-3.788888 2.77183,-7.574465 4.16806,-11.357701 1.70791,-4.021079 3.30155,-8.099216 5.3526,-11.963363 1.55498,-3.234835 3.16807,-6.435513 5.18356,-9.416081 1.87158,-2.876693 3.92152,-5.650317 5.31286,-8.810503 1.52609,-3.237524 3.00892,-6.495196 4.56335,-9.719583 1.51064,-3.276697 3.14902,-6.514592 5.27129,-9.445135 2.02203,-2.660645 4.09448,-5.280729 6.35913,-7.741391 0,0 -10.3374,4.37904 -10.3374,4.37904 z" />
    <path
       style="fill:#000000;fill-opacity:1;fill-rule:nonzero;stroke:none;stroke-width:0.264583"
       id="path94"
       d="m -351.23837,-67.673214 c 0.81331,4.848955 2.1386,9.589995 3.59342,14.28024 0.25005,0.803381 0.51183,1.603205 0.7502,2.410142 0.41883,1.417947 0.73212,2.867105 1.19009,4.272899 0.74808,2.296293 1.81346,4.494308 2.76492,6.709593 2.40261,5.603724 5.38446,10.933001 8.38317,16.233366 2.31235,4.01177 4.68849,7.985231 7.17465,11.891654 2.08754,3.4140187 4.31221,6.7384413 6.45851,10.1150851 2.37966,4.0321639 3.92424,8.4744494 5.43782,12.8837539 1.71662,4.810458 3.40992,9.626566 5.55284,14.266076 2.20908,4.401377 4.35895,8.828261 6.44964,13.286696 1.07005,1.994379 1.96826,4.071094 2.93444,6.114058 0,0 9.759,-5.584608 9.759,-5.584608 v 0 c -1.13859,-1.92764 -1.94768,-4.045421 -3.08629,-5.976631 -2.15059,-4.42187 -4.33332,-8.826754 -6.4897,-13.24607 -2.1145,-4.609846 -3.83376,-9.380584 -5.50018,-14.1683993 -1.54009,-4.4935975 -3.11709,-9.0145377 -5.50485,-13.1425679 -2.1359,-3.3832528 -4.37686,-6.6976538 -6.47194,-10.1072518 -2.46073,-3.902929 -4.91784,-7.809193 -7.24202,-11.795609 -3.03043,-5.235167 -5.99874,-10.527437 -8.28222,-16.140988 -0.9161,-2.189668 -1.90953,-4.361109 -2.64494,-6.621126 -0.45987,-1.413246 -0.81042,-2.860128 -1.25436,-4.278456 -0.24969,-0.797745 -0.52417,-1.587524 -0.78624,-2.381284 -1.47211,-4.670507 -2.76328,-9.412811 -3.27326,-14.298829 0,0 -9.9127,5.278257 -9.9127,5.278257 z" />
    <path
       style="fill:#000000;fill-opacity:1;fill-rule:nonzero;stroke:none;stroke-width:0.264583"
       id="path96"
       d="m -226.03845,-78.791413 c -2.58508,3.925308 -5.50467,7.60966 -8.2354,11.431736 -2.66804,4.079594 -5.60278,7.96173 -8.65218,11.761112 -3.51421,4.128699 -6.79716,8.443492 -9.75451,12.987446 -3.31032,5.04948 -6.82226,9.959872 -10.34114,14.864609 -3.81296,5.128567 -7.3942,10.422245 -11.14457,15.596736 -4.34969,5.9541852 -8.87015,11.77867908 -13.24311,17.7151608 -3.65022,5.0758762 -7.51459,10.0095182 -10.65718,15.4247842 -1.47891,2.711932 -2.63443,5.57681 -3.80391,8.429916 0,0 10.07282,-4.646668 10.07282,-4.646668 v 0 c 1.15448,-2.797198 2.32114,-5.596744 3.78381,-8.250857 3.15732,-5.327132 6.91353,-10.2491166 10.55068,-15.2527121 4.38409,-5.9342021 8.885,-11.7804569 13.25159,-17.7279409 3.76367,-5.177523 7.37911,-10.458971 11.1721,-15.615105 3.53524,-4.925809 7.07354,-9.850559 10.38584,-14.930964 3.01021,-4.503621 6.33963,-8.769352 9.82877,-12.91227 3.03141,-3.831082 5.93927,-7.747156 8.6424,-11.818596 2.77587,-3.869756 5.68871,-7.639446 8.40517,-11.552324 0,0 -10.26118,4.495937 -10.26118,4.495937 z" />
    <path
       style="fill:#000000;fill-opacity:1;fill-rule:nonzero;stroke:none;stroke-width:0.264583"
       id="path98"
       d="m -214.5732,-17.534269 c -1.19597,2.652462 -2.23573,5.362502 -3.07307,8.1488188 -0.63103,2.4159107 -0.95335,4.9070614 -1.25669,7.3832231 -0.57339,3.0049172 -0.81396,6.0554958 -1.22278,9.0847027 -0.54292,3.2258264 -1.11071,6.4465684 -1.62275,9.6776674 -0.32738,2.311191 -0.80227,4.598984 -1.39677,6.855224 -0.6884,2.215084 -1.67966,4.318026 -2.58573,6.448295 -0.82984,1.764617 -1.44617,3.608311 -1.77348,5.529506 -0.19462,1.42245 -0.43418,2.836103 -0.57063,4.266472 -0.40139,3.82247 -10.18897,5.89574 10.0711,-4.928288 0,0 -10.09635,4.988071 -10.09635,4.988071 v 0 c 14.87895,-6.435617 9.72395,-0.658157 10.09773,-5.064099 0.15134,-1.399333 0.38211,-2.786642 0.60423,-4.176157 0.38313,-1.83493 1.04027,-3.584654 1.82532,-5.285475 0.9277,-2.168666 1.89874,-4.33523 2.53012,-6.612809 0.55821,-2.277774 0.97057,-4.592094 1.28311,-6.915959 0.50242,-3.236338 1.08792,-6.4592424 1.59656,-9.6946904 0.39375,-3.04067344 0.71405,-6.0909061 1.26537,-9.1088618 0.33103,-2.4179998 0.65545,-4.8526648 1.32068,-7.2053368 0.86299,-2.756185 1.92457,-5.444986 3.23065,-8.023644 0,0 -10.22662,4.63334 -10.22662,4.63334 z" />
    <path
       style="fill:#000000;fill-opacity:1;fill-rule:nonzero;stroke:none;stroke-width:0.264583"
       id="path100"
       d="m -207.55749,-10.846442 c 4.07023,1.1738049 7.92283,2.959301 11.89246,4.4169205 3.56269,1.2188835 7.16443,2.3109116 10.70757,3.5864596 0,0 9.10684,-6.1600773 9.10684,-6.1600773 v 0 c -3.56031,-1.2056988 -7.15511,-2.3070918 -10.69448,-3.5740598 -3.95161,-1.451152 -7.79961,-3.164821 -11.7583,-4.600035 0,0 -9.25409,6.330792 -9.25409,6.330792 z" />
    <path
       style="fill:#000000;fill-opacity:1;fill-rule:nonzero;stroke:none;stroke-width:0.264583"
       id="path102"
       d="m -224.54694,38.959239 c 7.65444,3.29801 15.76823,5.452324 23.82826,7.515667 8.28762,1.93394 5.55963,0.896305 16.21496,-5.088223 0,0 -10.38467,4.09476 -10.38467,4.09476 v 0 c 14.32765,-7.55822 10.73291,-4.060777 6.39782,-4.476292 -1.15002,-0.110231 -2.27332,-0.413324 -3.40997,-0.619988 -7.91879,-1.838938 -15.8659,-3.962886 -23.21613,-7.504559 0,0 -9.43027,6.078635 -9.43027,6.078635 z" />
    <path
       style="fill:#000000;fill-opacity:1;fill-rule:nonzero;stroke:none;stroke-width:0.264583"
       id="path104"
       d="m -208.97134,23.101963 c 6.21346,0.555234 12.36934,1.66925 18.44569,3.062857 0,0 9.00439,-6.253717 9.00439,-6.253717 v 0 c -6.07189,-1.234599 -12.17102,-2.351261 -18.2932,-3.304729 0,0 -9.15688,6.495589 -9.15688,6.495589 z" />
    <path
       style="fill:#000000;fill-opacity:1;fill-rule:nonzero;stroke:none;stroke-width:0.264583"
       id="path106"
       d="m -127.15419,-10.415849 c -5.6466,0.09865 -11.29448,0.09429 -16.94174,0.07864 -3.74951,0.01783 -7.57012,-0.374226 -11.1763,0.8470067 -3.45013,2.1043739 -7.03337,4.0046219 -10.35039,6.3131215 -0.35807,0.249196 -0.34599,0.8028587 -0.47372,1.2199837 -0.63329,2.06813744 -0.60809,4.3049624 -0.67988,6.443432 0.0192,3.6264897 -0.29016,7.2645781 0.44582,10.8343461 0.98637,3.726165 3.00801,7.03557 5.54834,9.896134 2.80086,3.085068 5.30015,3.706855 9.24181,4.632812 3.37442,0.949192 6.81713,1.050374 10.28118,0.778054 3.27804,-0.513461 6.50968,-0.08136 9.74487,0.478587 3.35185,0.558231 6.59075,1.593358 9.46829,3.41086 2.5095,1.816751 3.69382,4.600747 4.75063,7.405867 0.66574,2.947265 0.4912,5.755452 -0.69311,8.531191 -1.01774,1.883269 -2.43432,3.577571 -4.20504,4.803513 -0.40527,0.280588 -1.70338,0.993002 -1.2793,0.741735 2.70835,-1.604714 5.42144,-3.201397 8.13216,-4.802097 -4.31841,1.749861 -9.07133,1.586926 -13.63424,1.256532 -3.06829,-0.34921 -6.07665,-1.051149 -9.09818,-1.663377 -2.71033,-0.650793 -5.47079,-0.982705 -8.22792,-1.350661 -2.0664,-0.374345 -4.15317,-0.592158 -6.23574,-0.846058 -0.85785,-0.09371 -1.68106,-0.305535 -2.49539,-0.579276 0,0 -9.31932,6.257422 -9.31932,6.257422 v 0 c 0.85462,0.37088 1.71237,0.679538 2.65033,0.769184 2.0759,0.381783 4.21227,0.379129 6.28406,0.823042 2.73392,0.428956 5.5147,0.576363 8.19965,1.306761 3.08906,0.568939 6.14327,1.326375 9.26757,1.703086 4.63761,0.349067 9.40562,0.580496 13.92321,-0.73319 6.23132,-3.529274 12.99379,-5.709459 16.12696,-12.376512 0.99816,-2.990921 1.17006,-6.190067 0.32719,-9.253122 -1.17539,-3.006066 -2.46999,-5.969018 -5.11258,-7.990287 -2.91341,-2.022874 -6.28951,-3.118362 -9.765,-3.761009 -3.25555,-0.586768 -6.50928,-1.26894 -9.83087,-0.78486 -3.42082,0.374743 -6.83988,0.57041 -10.2018,-0.390755 -1.78043,-0.421883 -3.78279,-0.72497 -5.44947,-1.532701 -1.27191,-0.616411 -2.33575,-1.651445 -3.36582,-2.586837 -2.49206,-2.65526 -4.35846,-5.81485 -5.23671,-9.37362 -0.62924,-3.4928452 -0.37682,-7.0632914 -0.34042,-10.59716808 0.0827,-1.62047302 0.11112,-3.28697542 0.54049,-4.86518982 1.12637,-4.1401357 7.90934,-5.9519081 -7.70703,2.8095028 3.42397,-1.7869327 7.37646,-1.2902241 11.11516,-1.3597116 5.57509,-0.015341 11.15086,-0.021955 16.72527,0.078638 0,0 9.04698,-6.5730173 9.04698,-6.5730173 z" />
    <path
       style="fill:#000000;fill-opacity:1;fill-rule:nonzero;stroke:none;stroke-width:0.264583"
       id="path108"
       d="m -96.601414,-5.8045177 c -0.34078,4.2469542 -0.733242,8.4949857 -1.113155,12.7410893 -0.432988,5.2447354 -0.785304,10.4918834 -0.660167,15.7550214 0.192207,3.510038 0.533263,7.030023 1.034555,10.511313 0.800233,3.451474 1.2108,6.964619 1.460336,10.493134 0.16424,2.549213 0.16913,5.104162 0.18129,7.657417 0.02824,2.715435 0.01251,5.430954 -0.0086,8.146357 -0.03744,0.377703 -0.07487,0.755404 -0.112305,1.133105 0,0 9.995567,-4.994855 9.995567,-4.994855 v 0 c 0.02379,-0.402836 0.04754,-0.805672 0.07132,-1.208511 -0.0132,-2.717747 -0.01506,-5.435472 0.0079,-8.15319 -0.0096,-2.568231 -0.06843,-5.13787 -0.28353,-7.698261 -0.309517,-3.545279 -0.739148,-7.076488 -1.47647,-10.561752 -0.47606,-3.438932 -0.873363,-6.901239 -1.043123,-10.368892 -0.188531,-5.212725 0.152482,-10.4174052 0.663996,-15.6057865 0.412036,-4.2820431 0.778743,-8.567377 1.324293,-12.8356595 0,0 -10.041917,4.9894703 -10.041917,4.9894703 z" />
    <path
       style="fill:#000000;fill-opacity:1;fill-rule:nonzero;stroke:none;stroke-width:0.264583"
       id="path110"
       d="m -92.724802,56.997438 c 6.193456,0.778124 12.34196,1.860785 18.531326,2.668402 4.887685,0.522356 9.786752,0.88487 14.662862,1.516303 3.03829,0.302078 6.045147,0.816647 9.060285,1.282812 1.31167,0.177831 0.669449,0.09878 1.926405,0.239223 0,0 9.131118,-6.502096 9.131118,-6.502096 v 0 c -1.250913,-0.09926 -0.610714,-0.04026 -1.92037,-0.179478 -3.063253,-0.402301 -6.102199,-0.97078 -9.185685,-1.21535 -4.911929,-0.612971 -9.837187,-1.03881 -14.770055,-1.444514 -6.128033,-0.72109 -12.217987,-1.699495 -18.289611,-2.796857 0,0 -9.146275,6.431555 -9.146275,6.431555 z" />
    <path
       style="fill:#000000;fill-opacity:1;fill-rule:nonzero;stroke:none;stroke-width:0.264583"
       id="path112"
       d="m -26.97984,-5.1578919 c -1.129408,6.7731121 -2.180614,13.5588854 -3.25687,20.3406929 -0.972222,6.266351 -1.342332,12.592982 -1.507323,18.924289 -0.09847,4.594868 -0.115605,9.190758 -0.144352,13.786398 -0.02016,2.812545 -0.169195,5.666301 -0.924054,8.38622 -0.35573,1.154277 -0.559509,2.34278 -1.289876,3.32735 0,0 10.276543,-4.602922 10.276543,-4.602922 v 0 c 0.457516,-1.151935 0.76587,-2.350183 1.076162,-3.548915 0.613877,-2.81891 0.791613,-5.719212 0.74547,-8.600783 -0.04923,-4.560681 -0.07832,-9.122513 0.01167,-13.68288 0.175522,-6.271 0.516223,-12.543604 1.471528,-18.751846 1.041444,-6.8381356 2.079119,-13.6876289 3.569548,-20.444824 0,0 -10.028447,4.8672201 -10.028446,4.8672201 z" />
    <path
       style="fill:#000000;fill-opacity:1;fill-rule:nonzero;stroke:none;stroke-width:0.264583"
       id="path114"
       d="m -20.161618,-2.2150706 c 3.68049,-0.077004 7.361949,-0.083023 11.0430724,-0.080245 0,0 8.82278493,-6.4101287 8.82278493,-6.4101287 v 0 c -3.60748293,0.00272 -7.21536533,-0.00143 -10.82217833,-0.080244 0,0 -9.043679,6.5706176 -9.043679,6.5706177 z" />
    <path
       style="fill:#000000;fill-opacity:1;fill-rule:nonzero;stroke:none;stroke-width:0.264583"
       id="path116"
       d="m -28.552214,52.300504 c 6.53855,1.919338 13.320913,2.830047 20.0587158,3.735607 4.0847435,0.395015 2.1618373,0.300191 5.7652988,0.346935 0,0 8.8752052,-6.471192 8.8752052,-6.471192 v 0 C 2.5135933,50.08105 4.4545781,50.089392 0.32509333,49.798901 -6.2730043,48.997237 -12.970667,48.190589 -19.272088,45.981429 c 0,0 -9.280126,6.319075 -9.280126,6.319075 z" />
    <path
       style="fill:#000000;fill-opacity:1;fill-rule:nonzero;stroke:none;stroke-width:0.264583"
       id="path118"
       d="m -28.795006,32.346807 c 8.498756,-0.272523 17.002255,-0.08961 25.5024816,-0.207341 0,0 8.6993575,-6.350233 8.6993575,-6.350233 v 0 c -8.3766873,0.257817 -16.7621201,0.169451 -25.1396511,-0.02649 0,0 -9.062188,6.584066 -9.062188,6.584066 z" />
    <path
       style="fill:#000000;fill-opacity:1;fill-rule:nonzero;stroke:none;stroke-width:0.264583"
       id="path120"
       d="m -12.358859,1.5707259 c 4.8565362,-0.098956 9.7145825,-0.067525 14.5716894,-0.038217 2.5286309,0.00693 1.2997853,0.00212 3.6865386,0.013957 0,0 8.974648,-6.5204635 8.974648,-6.5204635 v 0 c -2.415365,0.011816 -1.173713,0.00701 -3.724958,0.013957 -4.8220228,0.028621 -9.6450715,0.062502 -14.4664879,-0.038217 0,0 -9.0414301,6.5689833 -9.0414301,6.5689835 z" />
    <path
       style="fill:#000000;fill-opacity:1;fill-rule:nonzero;stroke:none;stroke-width:0.264583"
       id="path122"
       d="m 44.080803,-10.840083 c 3.210163,2.5974722 6.074476,5.6088721 8.893185,8.6196025 4.111532,4.8532785 7.253981,10.4379948 10.555557,15.8521115 2.96831,4.899003 5.832748,9.86069 8.828405,14.74296 1.983476,3.635079 4.383648,7.006892 6.599994,10.496373 1.749592,2.529657 3.286638,5.265017 5.309129,7.591356 0.225394,0.188835 0.409935,0.441706 0.67618,0.566507 0.303625,0.142322 0.688832,0.371504 0.983504,0.211466 3.578241,-1.943378 6.937706,-4.265015 10.40656,-6.397522 0,0 -10.325955,4.281879 -10.325955,4.281879 v 0 c 2.932327,-1.59177 5.799667,-3.309572 8.796978,-4.775311 0.228415,-0.111697 -0.139327,0.584364 -0.382005,0.660238 -0.221041,0.06911 -0.398608,-0.235905 -0.597914,-0.353859 C 91.698383,38.519578 90.281254,35.717906 88.557689,33.26679 86.304026,29.807916 83.819697,26.498682 81.843056,22.86204 78.828981,17.992133 75.944713,13.041715 72.904233,8.1873436 69.550726,2.7227728 66.445984,-2.961138 62.386424,-7.9423143 59.560771,-10.993924 56.623428,-13.954042 53.59134,-16.799147 c 0,0 -9.510537,5.959064 -9.510537,5.959064 z" />
    <path
       style="fill:#000000;fill-opacity:1;fill-rule:nonzero;stroke:none;stroke-width:0.264583"
       id="path124"
       d="m 123.3816,-11.242485 c -8.26239,3.3219822 -16.05618,7.8466204 -23.3644,12.911679 -6.185714,4.2959031 -10.51873,9.657244 -14.819653,15.741547 -4.315757,6.394447 -8.190709,13.069166 -11.673658,19.948793 -3.076678,5.951429 -5.515321,12.1931 -7.96436,18.419921 -2.522953,6.996372 -6.058368,13.526505 -9.977948,19.82289 -1.611262,2.493677 -3.341261,4.905502 -5.034021,7.343301 0,0 10.162249,-4.427323 10.162249,-4.427323 v 0 c 1.653477,-2.414683 3.305289,-4.831246 4.838907,-7.324952 3.807883,-6.375829 7.26255,-12.953056 9.809379,-19.947588 2.50023,-6.206599 5.03206,-12.406532 8.082341,-18.368844 3.43104,-6.834602 7.291331,-13.450221 11.635538,-19.748459 4.351208,-5.9856744 8.880266,-11.273532 15.081406,-15.4372811 4.40143,-2.9329122 4.50251,-2.9073846 -4.0811,2.04178596 -0.82183,0.47385425 1.65818,-0.92237496 2.49688,-1.36567816 1.76064,-0.9305967 2.53843,-1.3083346 4.34153,-2.0665243 0.54425,-0.2288503 1.09869,-0.4326411 1.64803,-0.6489618 0,0 8.81888,-6.8943056 8.81888,-6.8943056 z" />
    <path
       style="fill:#000000;fill-opacity:1;fill-rule:nonzero;stroke:none;stroke-width:0.264583"
       id="path126"
       d="m -122.73921,164.4462 c 0.26891,0.66231 0.57609,1.31035 0.80673,1.98694 1.16613,3.42092 1.85631,7.0082 2.5639,10.54238 1.16203,5.80391 0.83483,4.1496 1.8168,10.21774 1.56763,10.59195 3.00722,21.20238 4.17066,31.84657 0.86818,8.4356 1.09612,16.916 1.19954,25.38956 0.0763,6.74512 0.0572,13.49057 0.0233,20.23585 -0.0569,2.83195 -0.20777,5.67267 -0.72707,8.46294 -0.12601,0.67702 -0.63024,3.05774 -1.09475,3.78026 -0.15974,0.24847 -0.49864,0.31681 -0.74797,0.47522 0,0 10.33752,-4.34493 10.33752,-4.34493 v 0 c 2.02242,-3.84078 1.66206,-9.11578 1.94207,-13.31908 -0.0142,-6.7449 0.0127,-13.49028 -0.0719,-20.23472 -0.19983,-8.4747 -0.58072,-16.94816 -1.42564,-25.38607 -1.22403,-10.64294 -2.76884,-21.24383 -4.26084,-31.85178 -1.19173,-7.84025 -2.3101,-15.78557 -4.81271,-23.33514 0,0 -9.71973,5.53426 -9.71973,5.53426 z" />
    <path
       style="fill:#000000;fill-opacity:1;fill-rule:nonzero;stroke:none;stroke-width:0.264583"
       id="path128"
       d="m -143.95349,198.43322 c 3.29756,-4.72881 4.99854,-10.23323 6.4243,-15.75192 1.56851,-6.01562 2.82168,-12.14127 4.87141,-18.02252 0.47037,-1.34962 1.02737,-2.66746 1.54106,-4.00119 2.21023,-5.58109 5.16412,-10.78015 9.90819,-14.5891 1.2368,-0.99301 5.35213,-3.37472 3.91367,-2.70646 -1.66537,0.77368 -3.06866,2.0178 -4.60299,3.0267 8.49129,-3.31453 17.6515,-4.82553 26.76454,-4.31489 1.871814,0.10488 3.730189,0.38001 5.595284,0.57002 7.935831,1.23522 15.826378,3.70769 22.465183,8.36132 1.219333,0.85471 2.329852,1.855 3.494781,2.7825 4.530124,4.2695 8.177287,9.32433 10.391706,15.16737 1.307076,3.44889 1.567315,5.23474 2.353696,8.80193 1.019707,5.93552 0.776381,12.11307 -1.852895,17.62436 -0.441267,0.92495 -1.006166,1.78568 -1.50925,2.67852 -1.750562,2.51957 -3.9473,4.67535 -6.450798,6.44629 -0.900935,0.63731 -3.75702,2.31626 -2.801368,1.76436 2.050507,-1.18417 4.189362,-2.24569 6.08707,-3.66187 0.966938,-0.72159 -2.178169,1.03837 -3.267252,1.55756 -6.825957,3.0442 -12.98738,4.96097 -19.130754,9.854 -0.398817,0.31765 0.630571,0.80138 0.945857,1.20207 11.00356,1.54698 22.035716,2.95857 33.092461,4.08837 10.612757,1.17745 21.282424,2.20016 31.700356,4.64077 1.643803,0.38509 3.265099,0.86062 4.8976481,1.29093 2.9917493,1.11373 4.851129,1.59764 7.4994937,3.34086 4.8981718,3.2241 7.7704268,8.21452 10.5802353,13.17335 3.9688179,8.3264 6.4820809,17.50282 6.7673569,26.76299 0.05613,1.822 -0.08629,3.64468 -0.129431,5.46703 -0.29367,1.80607 -0.467031,3.6359 -0.881011,5.41824 -1.601077,6.89332 -4.9356096,13.67348 -9.7303244,18.913 -1.1060708,1.2087 -2.3900619,2.24163 -3.5850929,3.36243 -1.33409621,0.97547 -5.6189071,2.58305 -4.0022886,2.9264 1.75781264,0.37335 5.3258356,-1.15012 4.6083188,-2.79768 -0.7110036,-1.63261 -3.2438778,1.47497 -4.9053353,2.11566 -4.8390095,1.86606 -9.8432686,3.0529 -14.8872866,4.19404 -4.90264,0.99314 -9.866151,1.7902 -14.883008,1.45283 -2.433569,-0.16367 -2.919905,-0.33099 -5.216338,-0.78539 -2.391989,-0.64077 -4.838054,-1.46798 -6.632506,-3.26877 -1.316815,-1.32143 -1.898986,-2.44829 -2.91148,-4.03759 -2.688114,-4.92157 -5.029266,-10.01564 -7.722851,-14.93586 -2.051519,-3.67334 -4.125212,-7.3596 -5.647963,-11.29329 -1.168101,-3.01755 -1.27155,-3.77367 -2.09533,-6.91052 -1.316474,-6.0281 -1.712632,-12.19882 -1.840484,-18.35168 -0.04202,-2.36113 0.0384,-4.72149 0.06807,-7.08209 0,0 -10.000747,5.08122 -10.000747,5.08122 v 0 c -0.02432,2.35048 0.0011,4.7017 0.110808,7.05008 0.318799,6.19121 0.841181,12.39103 2.150858,18.46248 0.318815,1.19973 0.594712,2.4117 0.956448,3.59921 1.597853,5.24541 4.119962,10.13886 6.80476,14.89739 2.706116,4.93601 5.054891,10.04821 7.753459,14.98737 2.891348,4.76798 4.490654,6.63485 9.990108,8.08109 2.33503,0.48586 2.933147,0.68159 5.399008,0.87829 5.138103,0.40986 10.21634,-0.34235 15.240763,-1.37531 3.825759,-0.85384 6.177099,-1.31506 9.981312,-2.43438 10.0131833,-2.94624 19.468893,-7.82203 27.523314,-14.51123 1.168149,-1.16641 2.42566,-2.24972 3.504448,-3.49924 4.696134,-5.43941 7.936403,-12.36539 9.449855,-19.36655 0.395063,-1.82756 0.54737,-3.69925 0.821054,-5.54884 0.0229,-1.85455 0.145734,-3.71057 0.0687,-5.56365 -0.390688,-9.39827 -2.944995,-18.70273 -6.915159,-27.18714 -2.820917,-5.15453 -5.737061,-10.41181 -10.7651666,-13.77791 -2.7003364,-1.80776 -4.722288,-2.33151 -7.77955684,-3.45876 -1.66915006,-0.42623 -3.32811246,-0.89455 -5.00745036,-1.27867 -10.4827122,-2.39778 -21.1998932,-3.46749 -31.8682472,-4.65454 -10.745505,-1.0823 -21.426802,-2.60076 -32.106759,-4.18389 0.04209,4.14074 0.190498,0.38531 -9.106286,5.80759 -0.449972,0.26245 0.928955,-0.4738 1.409478,-0.67493 8.338264,-3.48998 -4.750792,2.2166 4.901848,-1.96635 1.021654,-0.44274 2.033529,-0.9077 3.050294,-1.36154 7.117204,-3.25712 4.359079,-1.87947 15.780781,-8.58924 3.671729,-2.15698 6.780933,-5.14079 9.071727,-8.72354 0.478343,-0.93379 1.018651,-1.83836 1.435031,-2.80138 2.475809,-5.72615 2.544289,-12.05818 1.407086,-18.10643 -0.817007,-3.531 -1.160838,-5.56421 -2.473598,-8.98121 -2.297001,-5.97888 -6.048163,-11.17629 -10.633643,-15.60921 -1.189178,-0.96366 -2.321576,-2.00195 -3.567531,-2.89098 -6.729021,-4.80138 -14.778275,-7.36337 -22.859613,-8.66727 -1.882519,-0.21628 -3.757367,-0.51531 -5.647558,-0.64883 -9.165262,-0.64743 -18.369755,0.78539 -27.007365,3.85861 -4.71253,2.60645 -12.6419,6.21954 -17.49965,10.39748 -4.66076,4.00852 -7.51728,9.40044 -9.75357,15.03174 -0.51334,1.358 -1.06484,2.70218 -1.54001,4.07399 -2.04918,5.91595 -3.34003,12.05662 -4.92984,18.10152 -1.48602,5.43262 -3.21214,11.04978 -7.01342,15.35722 0,0 10.37938,-4.27734 10.37938,-4.27734 z" />
    <path
       style="fill:#000000;fill-opacity:1;fill-rule:nonzero;stroke:none;stroke-width:0.264583"
       id="path130"
       d="m 76.686668,279.41868 c 2.490391,-9.65854 6.759985,-18.77998 12.069054,-27.20362 1.580364,-2.50749 3.334639,-4.90106 5.001958,-7.35159 8.22971,-11.47576 18.50219,-21.20052 28.62527,-30.95814 2.14905,-1.69709 3.64677,-4.16755 5.79678,-5.86161 0.32648,-0.25724 1.45029,-0.81092 1.10016,-0.58692 -9.84238,6.29681 -10.25217,2.28313 -8.32873,8.22103 3.80725,15.56765 6.29421,31.43245 8.5687,47.28629 0.42343,3.22912 1.08355,7.73646 1.29392,11.09505 0.10324,1.64822 0.19548,4.32538 -0.30663,6.04898 -0.16404,0.56312 -0.54426,1.03913 -0.81639,1.55869 0,0 10.06584,-4.6374 10.06584,-4.6374 v 0 c 0.19594,-0.60259 0.48117,-1.18314 0.58783,-1.80777 0.31342,-1.83541 0.0976,-4.35904 -0.0941,-6.11127 -0.34412,-3.14515 -1.18233,-7.97012 -1.6672,-10.9411 -2.64981,-15.91624 -5.20094,-31.85196 -8.04582,-47.73382 -0.29461,-1.04485 0.19703,-3.23568 -0.88384,-3.13454 -9.02539,0.84452 -11.89349,5.27756 -17.17358,10.6918 -9.89102,9.76186 -19.868173,19.54538 -27.962269,30.90502 -1.675059,2.47968 -3.433369,4.90511 -5.025179,7.43904 -5.470363,8.70802 -9.815483,18.09723 -12.885274,27.91039 0,0 10.0795,-4.82851 10.0795,-4.82851 z" />
    <path
       style="fill:#000000;fill-opacity:1;fill-rule:nonzero;stroke:none;stroke-width:0.264583"
       id="path132"
       d="m 115.30182,258.57435 c 0.39068,-4.25717 -0.16238,-8.43424 -1.66316,-12.42217 -0.16676,-0.63029 -0.78206,-1.74559 0.0713,-2.32935 0.47622,-0.32576 2.10432,-0.86491 1.65703,-0.50045 -2.11437,1.72286 -5.1421,2.42981 -6.73864,4.64111 -0.74831,1.03644 2.52394,-0.4135 3.79362,-0.5621 1.29925,-0.15205 2.60643,-0.22631 3.90965,-0.33947 0,0 8.67524,-6.40999 8.67524,-6.40999 v 0 c -0.36234,0.0269 -7.24986,0.50118 -7.68599,0.67426 -4.23858,1.6821 -8.27888,3.83818 -12.29915,5.99048 -1.90896,1.02199 -1.70052,2.53456 -1.08319,4.2327 1.50073,3.86248 1.9696,7.89884 1.38309,12.02081 0,0 9.98017,-4.99583 9.98017,-4.99583 z" />
    <path
       style="fill:#000000;fill-opacity:1;fill-rule:nonzero;stroke:none;stroke-width:0.264583"
       id="path134"
       d="m 167.23323,272.15105 c -0.81197,-14.31293 -0.39396,-28.68414 2.00399,-42.84062 0.55563,-3.28024 1.35013,-6.51551 2.02519,-9.77326 2.58676,-8.67196 4.93081,-19.69483 11.7632,-26.25581 0.6134,-0.58903 1.33213,-1.0575 1.99819,-1.58625 -2.54771,1.53497 -5.23251,2.86254 -7.64313,4.60491 -0.39373,0.28458 0.98089,-0.24975 1.45167,-0.12979 0.5372,0.13688 1.0422,0.45846 1.42222,0.86207 2.25102,2.39078 2.757,6.07504 3.42788,9.10578 0.84252,6.224 0.15328,12.61017 -2.63523,18.28974 -0.37962,0.7732 -0.85484,1.49568 -1.28226,2.24352 0.039,0.75922 -2.75027,2.77322 -2.64337,3.59813 0.20833,1.6076 2.95736,1.86145 4.04138,2.15896 8.38474,2.8051 12.47697,8.85636 17.54267,15.64259 3.15361,3.83353 5.54194,8.65836 9.68081,11.57643 0,0 9.36931,-6.07067 9.36931,-6.07067 v 0 c -1.99642,-0.94534 -3.13727,-2.33613 -4.57978,-4.02897 -2.15402,-2.52784 -3.30274,-4.16205 -5.34219,-6.88594 -5.17769,-7.05838 -9.07619,-13.10065 -17.53599,-16.46621 -0.62565,-0.21004 -1.23561,-0.47446 -1.87696,-0.63012 -0.31649,-0.0768 -0.65338,-0.11298 -0.97505,-0.0621 -0.0773,0.0122 -0.11349,0.28564 -0.0625,0.22629 0.9202,-1.07068 1.52833,-2.44858 2.3936,-3.55349 1.08657,-2.16155 1.51848,-2.82067 2.27212,-5.23989 1.60226,-5.14331 1.88384,-10.57945 1.12799,-15.89546 -0.73503,-3.4265 -1.66,-9.59095 -5.32218,-11.34775 -0.56425,-0.27068 -1.28418,-0.58472 -1.85033,-0.31803 -3.88648,1.83079 -7.44007,4.29787 -11.1601,6.4468 -1.80858,1.6844 -2.3891,2.05293 -3.86361,4.27459 -4.70586,7.09035 -6.49391,15.70076 -8.65937,23.77578 -0.63085,3.26017 -1.36504,6.50203 -1.89256,9.7805 -2.31817,14.40712 -2.70472,28.9812 -3.0851,43.53716 0,0 9.88947,-5.03893 9.88947,-5.03893 z" />
    <path
       style="fill:#000000;fill-opacity:1;fill-rule:nonzero;stroke:none;stroke-width:0.264583"
       id="path136"
       d="m 230.9355,197.8343 c 0.40689,0.71143 0.8696,1.39373 1.22067,2.1343 2.38355,5.02807 3.74484,10.4729 5.0409,15.85685 1.32287,5.49531 1.71564,7.6981 2.81,13.13581 0,0 9.20176,-4.92952 9.20176,-4.92952 v 0 c -0.96008,-4.44263 -1.8673,-8.70151 -2.88282,-13.13851 -1.45675,-6.36488 -2.83916,-12.87344 -5.75674,-18.76416 0,0 -9.63377,5.70523 -9.63377,5.70523 z" />
    <path
       style="fill:#000000;fill-opacity:1;fill-rule:nonzero;stroke:none;stroke-width:0.264583"
       id="path138"
       d="m 223.24852,204.71174 c 4.05072,-0.38596 8.1098,-0.63035 12.17761,-0.52085 3.60803,0.25125 7.1657,0.91865 10.66375,1.82083 1.9265,0.49686 4.72266,1.28561 6.55269,2.1565 0.90976,0.43294 1.73477,1.02517 2.60216,1.53776 0.67924,0.70959 1.47617,1.32282 2.03771,2.12877 2.53334,3.63598 2.05599,8.15824 0.22899,11.96567 -0.44294,0.92309 -1.05278,1.75636 -1.57917,2.63454 -0.66348,1.06994 -2.15281,2.68716 -1.44194,4.23754 0.99979,2.18051 4.43404,3.67377 6.19274,4.53649 0.80597,0.39536 10.29911,4.5606 11.0201,4.87774 4.18378,2.22445 8.88632,4.191 12.23256,7.70112 0.76706,0.80462 2.29727,2.56069 1.15705,3.89764 -0.49104,0.57576 -1.33233,0.71784 -1.99853,1.07675 8.49096,-6.6353 7.57349,-3.8956 0.94266,-4.75747 -2.01716,-0.26219 -3.97693,-0.85722 -5.96538,-1.28583 0,0 -8.61814,5.96119 -8.61814,5.96119 v 0 c 1.3942,0.35788 8.92792,2.6188 10.91676,2.00204 4.54306,-1.40882 8.62137,-4.02105 12.93204,-6.03158 0.55851,-0.64673 1.37906,-1.13876 1.67556,-1.9402 0.66011,-1.78431 -0.84387,-3.57328 -1.92223,-4.64366 -3.53187,-3.50578 -8.30074,-5.51994 -12.62533,-7.78118 -2.56855,-1.14297 -8.20976,-3.60826 -10.77264,-4.92089 -0.43667,-0.22364 -4.66397,-2.26423 -5.24958,-3.63658 -0.44715,-1.04793 1.19039,-3.24437 1.47762,-3.73926 0.48943,-0.93222 1.06601,-1.82365 1.46833,-2.79665 1.75956,-4.25559 1.94218,-9.09126 -0.75655,-13.02586 -0.611,-0.89079 -1.46613,-1.58672 -2.1992,-2.38008 -0.91198,-0.56004 -1.77564,-1.2077 -2.73594,-1.68012 -1.91317,-0.94117 -4.65879,-1.6941 -6.68803,-2.2346 -3.49902,-0.93197 -7.04595,-1.68797 -10.64938,-2.08086 -4.03601,-0.27918 -8.05345,-0.024 -12.08469,0.2784 0,0 -8.9916,6.64269 -8.9916,6.64269 z" />
    <path
       style="fill:#000000;fill-opacity:1;fill-rule:nonzero;stroke:none;stroke-width:0.264583"
       id="path140"
       d="m 305.1683,248.31835 c -0.75446,-5.08182 -1.49657,-10.58772 0.89011,-15.40036 0.65979,-1.33046 1.65991,-2.46303 2.48989,-3.69454 1.43893,-1.0957 2.91822,-2.14033 4.3168,-3.2871 1.01841,-0.83505 -4.48836,2.24894 -3.17534,2.35114 2.26253,0.17609 4.27937,-1.53222 6.47809,-2.09408 3.17783,-0.81208 8.53823,-1.61311 11.9186,-1.66148 1.53834,-0.022 3.06885,0.22391 4.60327,0.33587 2.46269,0.70327 6.79326,1.83413 7.44395,4.96801 0.14116,0.67988 -0.0648,1.45285 -0.44233,2.03566 -0.48649,0.75108 -2.82014,2.16975 -2.02089,1.76726 2.12138,-1.06826 4.02323,-2.52572 6.03483,-3.78858 -3.5442,1.4179 -7.25408,2.1544 -11.06196,1.48218 -0.98965,-0.1747 -1.92474,-0.57881 -2.88711,-0.86822 0,0 -9.01044,6.13267 -9.01044,6.13267 v 0 c 1.02439,0.34089 2.01716,0.79822 3.07319,1.02266 3.88385,0.82543 7.7303,0.25936 11.45096,-0.98537 4.16274,-2.41005 8.50376,-4.53562 12.48828,-7.23014 0.83306,-0.56336 1.44989,-1.48138 1.79218,-2.427 1.1625,-3.21129 -1.88532,-5.84497 -4.38433,-7.05171 -1.19984,-0.57938 -2.52783,-0.84327 -3.79175,-1.2649 -1.60435,-0.13174 -3.20331,-0.40692 -4.81301,-0.39521 -1.91801,0.0139 -3.83262,0.22556 -5.73481,0.4719 -12.00804,1.55507 -23.12369,6.38065 -32.07097,14.79243 -0.81015,1.32872 -1.78927,2.56816 -2.43044,3.98615 -2.28869,5.06153 -1.47489,10.66789 -1.09553,15.99329 0,0 9.93876,-5.19053 9.93876,-5.19053 z" />
    <path
       style="fill:#000000;fill-opacity:1;fill-rule:nonzero;stroke:none;stroke-width:0.264583"
       id="path142"
       d="m 358.20701,212.80337 c -0.80478,2.71199 -0.053,3.88782 1.7489,6.10975 0.84331,1.03985 1.78144,2.00162 2.73484,2.94156 1.86833,1.84194 4.8614,4.36355 6.8462,6.07413 2.68078,2.3755 5.50111,4.62848 7.89469,7.30902 0.76692,0.85885 2.15593,2.45111 2.36408,3.72137 0.0858,0.52387 -0.19392,1.04385 -0.29086,1.56577 -0.55578,0.38739 -2.24046,1.52342 -1.66735,1.16217 2.22922,-1.40514 4.90262,-2.31085 6.63705,-4.2947 0.79499,-0.90934 -2.34702,0.59295 -3.54373,0.75651 -3.27247,0.44723 -6.46509,0.15286 -9.70491,-0.30605 0,0 -8.9425,6.30135 -8.9425,6.30135 v 0 c 3.34669,0.50123 6.60625,0.79742 9.99916,0.51853 1.21788,-0.10011 2.52138,0.016 3.63273,-0.49209 4.19868,-1.91936 8.22381,-4.22662 12.11705,-6.70768 0.66029,-0.42079 0.9235,-1.26467 1.38527,-1.89702 -0.008,-0.68466 0.146,-1.39051 -0.023,-2.05399 -0.3773,-1.4799 -1.66418,-2.91873 -2.65293,-3.97637 -2.48631,-2.65959 -5.40081,-4.86581 -8.12503,-7.26456 -2.22608,-1.91326 -4.64238,-3.90538 -6.69997,-6.00809 -0.89075,-0.91026 -1.7539,-1.85338 -2.52894,-2.86396 -1.4101,-1.83861 -1.99072,-3.06637 -0.91538,-5.12304 0,0 -10.26522,4.52739 -10.26522,4.52739 z" />
    <path
       style="fill:#000000;fill-opacity:1;fill-rule:nonzero;stroke:none;stroke-width:0.264583"
       id="path144"
       d="m 369.29263,209.05082 c 0.28946,-0.54654 0.53785,-1.1169 0.86839,-1.63961 1.02838,-1.62621 2.01033,-2.86309 3.6195,-4.00214 1.01719,-0.72002 4.14221,-2.7172 3.25147,-1.84556 -3.84287,3.76053 -8.91207,4.74511 -0.44387,2.20578 1.43042,-0.33201 2.86081,-0.66402 4.29123,-0.99603 0,0 8.525,-6.4907 8.525,-6.4907 v 0 c -1.45526,0.32606 -2.91055,0.65211 -4.36581,0.97817 -9.0229,2.48229 -4.65336,0.94068 -18.0835,8.19684 -3.63678,1.96492 -6.02634,4.52286 -7.85532,8.1823 0,0 10.19291,-4.58905 10.19291,-4.58905 z" />
    <path
       style="fill:#000000;fill-opacity:1;fill-rule:nonzero;stroke:none;stroke-width:0.264583"
       id="path146"
       d="m 419.83435,251.32957 c 0.56065,-1.14238 1.17361,-2.26054 1.68193,-3.42714 3.2822,-7.53265 5.5971,-15.44273 7.80941,-23.33939 2.05753,-7.34406 3.96235,-14.73004 5.94487,-22.09469 0.31142,-1.12352 4.3575,-15.89691 5.07762,-17.89372 0.59698,-1.65526 4.02762,-4.80209 2.26835,-4.76664 -14.30298,0.28822 -6.40109,4.83876 -4.76432,7.47036 1.26928,2.04078 2.2062,4.27038 3.3093,6.40557 4.00465,8.60069 7.37888,17.47026 10.80119,26.31179 0,0 8.76525,-4.88742 8.76525,-4.88742 v 0 c -3.52073,-8.8416 -6.9886,-17.70448 -10.60156,-26.50902 -1.01249,-2.27864 -1.83783,-4.65 -3.03742,-6.83593 -0.76952,-1.40225 -1.26209,-4.14579 -2.83758,-3.86965 -4.24897,0.74472 -7.98332,3.56137 -11.27961,6.34399 -1.28601,1.08561 -1.31868,3.1032 -1.8161,4.71099 -1.80462,5.83311 -2.80792,11.89581 -4.67439,17.71123 -1.75242,6.53552 -4.14766,15.65381 -6.08381,22.12341 -2.38797,7.97953 -4.94339,16.08095 -8.72791,23.53574 -0.5992,1.18032 -1.34808,2.27849 -2.02211,3.41773 0,0 10.18689,-4.40721 10.18689,-4.40721 z" />
    <path
       style="fill:#000000;fill-opacity:1;fill-rule:nonzero;stroke:none;stroke-width:0.264583"
       id="path148"
       d="m 434.43927,230.74658 c 2.6144,-1.1501 5.20914,-2.34345 7.81714,-3.50802 0,0 8.53995,-6.76746 8.53995,-6.76746 v 0 c -2.51973,1.11328 -5.02803,2.25172 -7.5539,3.35092 0,0 -8.80319,6.92456 -8.80319,6.92456 z" />
    <path
       style="fill:#000000;fill-opacity:1;fill-rule:nonzero;stroke:none;stroke-width:0.264583"
       id="path152"
       d="m 325.96806,-23.604558 c 2.53183,4.805797 4.3895,9.91448 6.35712,14.9652585 2.33156,6.3487871 5.19285,12.4599005 8.51472,18.3446574 2.75981,4.6895271 6.3423,8.7973461 9.73124,13.0278861 3.34261,4.304288 8.09678,7.016942 12.74691,9.679717 0.77454,0.41108 1.54749,0.825119 2.3236,1.233241 1.24013,0.652145 2.64898,1.422022 3.96719,1.924032 2.56487,0.976778 5.28589,1.500666 7.95596,2.088665 6.24195,1.331804 12.5571,2.095233 18.91896,2.507293 6.6141,0.523568 13.24345,0.780116 19.87364,0.986342 4.98261,0.285417 9.95156,0.03789 14.89991,-0.554439 4.86711,-0.473181 9.62154,-1.433722 14.27715,-2.908586 5.7663,-1.992577 11.55896,-3.906329 17.36781,-5.771025 3.31652,-1.145474 6.68065,-2.220021 9.82083,-3.807272 4.69633,-2.373837 9.12511,-5.243715 13.66898,-7.897762 4.13417,-2.53848 7.82966,-5.664883 11.41868,-8.906982 4.02259,-3.7698203 7.96811,-7.6259099 11.76586,-11.62242246 3.55939,-3.64550544 6.0788,-8.04338864 8.37676,-12.54305954 1.58721,-3.358179 2.6389,-6.930238 3.33145,-10.570835 0.48691,-1.89506 0.81499,-3.818969 1.30379,-5.711642 0.23206,-0.888339 0.34623,-1.798304 0.43751,-2.709632 0,0 -10.08332,4.993282 -10.08332,4.993282 v 0 c -0.11295,0.865331 -0.25845,1.725259 -0.48207,2.570003 -0.45234,1.896798 -0.75399,3.826315 -1.19656,5.725926 -0.68871,3.532546 -1.7504,6.990653 -3.3443,10.2271394 -2.30045,4.4143805 -4.9076,8.66255089 -8.4341,12.2239954 -3.83368,3.9698332 -7.78087,7.8326092 -11.84709,11.5643512 -3.60939,3.195163 -7.35626,6.231461 -11.4971,8.723438 2.42798,-1.381011 4.8527,-2.767779 7.28396,-4.143033 0.70588,-0.399292 -1.39507,0.828215 -2.10783,1.21512 -3.10949,1.687909 -6.46991,2.816049 -9.79676,3.989577 -5.78329,1.850469 -11.55446,3.740451 -17.29859,5.70976 -4.60705,1.550271 -9.3174,2.639918 -14.16947,3.088635 -4.92355,0.656617 -9.87917,0.92714 -14.84672,0.720971 -6.63546,-0.133577 -13.26809,-0.387122 -19.88434,-0.929605 -6.31552,-0.376362 -12.58964,-1.086808 -18.78845,-2.391315 -2.58927,-0.577763 -5.22756,-1.095595 -7.73348,-1.989257 -1.51175,-0.539131 -2.54072,-1.095809 -3.98519,-1.818862 -0.77877,-0.389818 -1.55508,-0.784511 -2.33261,-1.176765 -4.55073,-2.56052 -9.17843,-5.207976 -12.46847,-9.37041 -3.39873,-4.149607 -6.95608,-8.2067287 -9.71767,-12.8276485 -3.33179,-5.8167254 -6.23048,-11.8520354 -8.4855,-18.1748065 -1.95313,-5.117547 -3.81225,-10.271633 -6.1314,-15.240038 0,0 -9.71101,5.556107 -9.71101,5.556107 z" />
    <path
       style="fill:#000000;fill-opacity:1;fill-rule:nonzero;stroke:none;stroke-width:0.264583"
       id="path154"
       d="m 330.37422,-71.003818 c 5.83756,-0.127193 11.67699,-0.117864 17.51558,-0.103246 4.22426,-0.0029 8.44814,0.05794 12.67227,0.07942 2.61366,0.01378 5.22729,0.0053 7.84093,-0.0072 2.68279,-0.04488 5.36763,0.06706 8.0496,-0.01352 0.29057,-0.02302 0.58113,-0.04603 0.8717,-0.06904 0,0 9.00454,-6.688399 9.00454,-6.688399 v 0 c -0.28665,0.03808 -0.5733,0.07617 -0.85995,0.114252 -2.67444,0.280247 -5.38372,0.03278 -8.06784,0.119253 -2.60707,-0.01254 -5.21414,-0.02088 -7.82124,-0.0072 -4.29696,0.02156 -8.59374,0.08175 -12.89087,0.07943 -5.74384,0.01429 -11.48863,0.0269 -17.23139,-0.103248 0,0 -9.08333,6.599433 -9.08333,6.599433 z" />
    <path
       style="fill:#000000;fill-opacity:1;fill-rule:nonzero;stroke:none;stroke-width:0.264583"
       id="path156"
       d="m 462.10211,-74.180617 c 4.41513,-0.859017 8.87934,-1.463241 13.33082,-2.105279 6.13725,-0.887786 12.33242,-1.236448 18.52441,-1.445681 3.15907,-0.165576 6.30272,-0.519451 9.46113,-0.695356 2.72071,-0.05496 5.40959,0.348911 8.05624,0.941575 0.53737,0.136038 1.07471,0.272079 1.61208,0.40812 0,0 9.14308,-6.301238 9.14308,-6.301238 v 0 c -0.54272,-0.13849 -1.08543,-0.276984 -1.62814,-0.415475 -2.69063,-0.68667 -5.40819,-1.190916 -8.19423,-1.237935 -3.20079,0.165907 -6.38445,0.492157 -9.57424,0.797909 -6.23326,0.280734 -12.47351,0.609876 -18.66524,1.411978 -4.37676,0.608148 -8.7548,1.208773 -13.12619,1.851073 0,0 -8.93972,6.790309 -8.93972,6.790309 z" />
    <path
       style="fill:#000000;fill-opacity:1;fill-rule:nonzero;stroke:none;stroke-width:0.264583"
       id="path158"
       d="m 322.37613,-87.457784 c 3.56929,-1.278419 7.18646,-2.403645 10.82908,-3.451252 2.84364,-0.765026 5.62385,-1.732319 8.51742,-2.297292 2.24573,-0.254286 4.40483,-0.928262 6.62,-1.344197 3.22355,-0.540938 6.46359,-0.900517 9.72437,-1.109496 3.8754,-0.205359 7.75702,-0.238009 11.63698,-0.240758 2.526,-0.0026 5.04989,-0.07669 7.54414,0.371163 1.22794,0.296461 0.6226,0.146407 1.81618,0.449609 0,0 9.22761,-6.366533 9.22761,-6.366533 v 0 c -1.2115,-0.29486 -0.59401,-0.13895 -1.85211,-0.46916 -2.55606,-0.63074 -5.15945,-0.56131 -7.77719,-0.49882 -3.89408,0.025 -7.79036,0.009 -11.68106,0.19775 -3.2575,0.17251 -6.49679,0.44387 -9.72034,0.95124 -2.23322,0.3504 -4.37301,1.03192 -6.61001,1.327702 -2.97857,0.485415 -5.80824,1.451795 -8.69987,2.290995 -3.59857,1.042138 -7.18669,2.103014 -10.74187,3.286181 0,0 -8.83333,6.902868 -8.83333,6.902868 z" />
    <path
       style="fill:#000000;fill-opacity:1;fill-rule:nonzero;stroke:none;stroke-width:0.264583"
       id="path160"
       d="m 462.66433,-94.211602 c 3.50022,-2.183881 7.32671,-3.641309 11.21492,-4.957286 3.45858,-1.353052 6.99471,-2.293432 10.67813,-2.727652 2.87242,-0.27372 5.76006,-0.2888 8.6428,-0.2811 2.35215,-0.0547 4.69011,0.0911 7.03009,0.31309 2.85755,0.24214 5.71412,0.43506 8.56077,0.79192 2.6992,0.32583 5.35753,0.90475 8.03162,1.383288 0,0 9.12902,-6.404058 9.12902,-6.404058 v 0 c -2.70645,-0.42187 -5.38398,-1.00531 -8.09829,-1.37458 -2.8363,-0.43076 -5.68227,-0.68838 -8.5449,-0.86222 -2.35072,-0.22218 -4.69321,-0.52935 -7.06017,-0.42138 -2.93005,0.008 -5.86279,0.036 -8.78676,0.24257 -3.76007,0.346 -7.38748,1.10884 -10.88779,2.57989 -3.83939,1.29377 -7.70945,2.52715 -11.18362,4.67175 0,0 -8.72582,7.045768 -8.72582,7.045768 z" />
    <path
       style="fill:#000000;fill-opacity:1;fill-rule:nonzero;stroke:none;stroke-width:0.264583"
       id="path162"
       d="m 427.35656,-60.004758 c 0.10546,4.010697 0.087,8.023704 0.0791,12.035462 -0.003,3.471394 -0.0262,6.942764 -0.0494,10.414076 -2e-5,2.344486 -0.0122,4.688917 -0.0243,7.033363 -0.0182,1.806977 -0.007,3.613746 0.008,5.420651 -0.0533,2.399886 0.16327,4.820381 -0.11428,7.208851 -0.0806,0.267767 -0.10808,0.557761 -0.24191,0.803302 -0.30649,0.562297 -0.64934,0.597247 -1.19702,0.836349 2.92885,-1.750696 5.9138,-3.410767 8.78654,-5.25209 0.25855,-0.165709 -0.59478,0.162584 -0.8999,0.197043 -0.33798,0.03817 -0.68014,0.01319 -1.0202,0.01979 -3.16588,-0.338846 -6.24782,-1.160431 -9.35676,-1.812833 -1.17898,-0.223497 -2.36905,-0.371822 -3.55324,-0.563217 0,0 -9.16128,6.414556 -9.16128,6.414556 v 0 c 1.18631,0.226348 2.37567,0.353059 3.57137,0.522831 3.15074,0.584119 6.26144,1.358018 9.40845,1.959193 5.24664,0.706207 5.871,-1.694541 12.64513,-5.659621 0.78925,-0.461977 0.89709,-1.691318 1.03446,-2.461215 0.13912,-2.42662 -0.003,-4.860888 0.0638,-7.290417 0.0151,-1.809691 0.0267,-3.619248 0.008,-5.429009 -0.0124,-2.336149 -0.0243,-4.672279 -0.0243,-7.008466 -0.0233,-3.45455 -0.0475,-6.909159 -0.0493,-10.363792 -0.008,-4.038629 -0.0254,-8.078449 0.0791,-12.116043 0,0 -9.99212,5.091236 -9.99212,5.091236 z" />
    <circle
       id="path164"
       style="fill:#000000;stroke:#000000;stroke-width:0.264583"
       cx="367.5502"
       cy="-40.782719"
       r="0.099906191" />
    <circle
       id="path166"
       style="fill:#000000;stroke:#000000;stroke-width:0.264583"
       cx="365.41403"
       cy="-37.514645"
       r="0.099906191" />
    <path
       style="fill:none;stroke:#000000;stroke-width:0.264583px;stroke-linecap:butt;stroke-linejoin:miter;stroke-opacity:1"
       d="m 362.48406,-41.576804 2.01758,0.672533"
       id="path168" />
  </g>
</svg>
