<?xml version="1.0" encoding="UTF-8" standalone="no"?>
<svg
   xmlns:dc="http://purl.org/dc/elements/1.1/"
   xmlns:cc="http://creativecommons.org/ns#"
   xmlns:rdf="http://www.w3.org/1999/02/22-rdf-syntax-ns#"
   xmlns:svg="http://www.w3.org/2000/svg"
   xmlns="http://www.w3.org/2000/svg"
   xmlns:sodipodi="http://sodipodi.sourceforge.net/DTD/sodipodi-0.dtd"
   xmlns:inkscape="http://www.inkscape.org/namespaces/inkscape"
   width="50mm"
   height="50mm"
   viewBox="0 0 50 50"
   version="1.1"
   id="svg8"
   inkscape:version="1.0.2 (394de47547, 2021-03-26)"
   sodipodi:docname="logo free fire.svg">
  <defs
     id="defs2" />
  <sodipodi:namedview
     id="base"
     pagecolor="#ffffff"
     bordercolor="#666666"
     borderopacity="1.0"
     inkscape:pageopacity="0.0"
     inkscape:pageshadow="2"
     inkscape:zoom="2.8"
     inkscape:cx="106.3249"
     inkscape:cy="107.65916"
     inkscape:document-units="mm"
     inkscape:current-layer="layer1"
     inkscape:document-rotation="0"
     showgrid="false"
     guidecolor="#000000"
     guideopacity="0.49803922"
     inkscape:window-width="1853"
     inkscape:window-height="1025"
     inkscape:window-x="67"
     inkscape:window-y="27"
     inkscape:window-maximized="1" />
  <metadata
     id="metadata5">
    <rdf:RDF>
      <cc:Work
         rdf:about="">
        <dc:format>image/svg+xml</dc:format>
        <dc:type
           rdf:resource="http://purl.org/dc/dcmitype/StillImage" />
        <dc:title></dc:title>
      </cc:Work>
    </rdf:RDF>
  </metadata>
  <g
     inkscape:label="Capa 1"
     inkscape:groupmode="layer"
     id="layer1">
    <path
       style="fill:#000000;stroke-width:0.172;stroke-miterlimit:4;stroke-dasharray:none;stroke:#ff0000;stroke-opacity:1"
       d="M 18.486969,50.11778 C 15.317567,49.753372 11.256467,47.955896 9.0638464,45.947061 7.4515256,44.469873 5.7551771,41.217 5.1821826,38.503664 4.8323082,36.846866 4.8650007,33.52305 5.2494352,31.666692 5.8849376,28.597962 6.9351355,26.367559 9.0106802,23.678567 12.322466,19.387969 16.106812,17.337933 21.505386,16.910025 l 1.692935,-0.134185 -0.766394,-0.433203 c -2.314718,-1.308382 -6.068536,-1.899834 -8.158798,-1.285501 -0.591874,0.173957 -2.115515,0.869036 -3.38587,1.544644 -2.2406851,1.191634 -3.9667797,1.883633 -5.2338932,2.09827 -1.3595989,0.230307 -5.6174621,0.324132 -5.6174621,0.123778 0,-0.11056 0.06345336,-0.201016 0.14101091,-0.201016 0.077556,0 0.68354854,-0.448482 1.34665329,-0.996626 0.8069557,-0.667064 2.4525196,-2.529225 4.9762677,-5.631283 2.0738437,-2.5490584 4.3451234,-5.1760077 5.0472894,-5.837659 1.453417,-1.3695593 4.686692,-3.8736889 4.802509,-3.7194813 0.04233,0.056347 -0.0094,0.1409215 -0.114769,0.1879329 -0.237426,0.1058597 -4.215569,5.4701699 -4.133037,5.5731816 0.03285,0.040995 0.984719,-0.5048194 2.115282,-1.2129014 2.696469,-1.6888215 5.684732,-3.1765855 8.442553,-4.2032909 2.114972,-0.7873789 8.457574,-2.67297626 8.560208,-2.54486764 0.02644,0.0329614 -0.694144,0.47433213 -1.601255,0.98079864 -2.01053,1.1225316 -5.863244,3.6829173 -8.257808,5.4878678 -1.855421,1.3985559 -4.549467,3.6136253 -4.549467,3.7406093 0,0.04072 0.406723,-0.04434 0.903831,-0.189104 4.690481,-1.3656844 6.256814,-1.6763378 8.56121,-1.6979894 2.007466,-0.018872 2.476967,0.038376 3.599871,0.4388407 1.640024,0.584875 4.0794,2.1247107 7.019443,4.4309667 3.1574,2.476754 4.390522,3.130295 6.105154,3.235659 1.529163,0.09397 2.815462,-0.206982 5.239711,-1.225931 0.861592,-0.362138 1.637122,-0.658438 1.723405,-0.658438 0.260698,0 -1.461695,2.089765 -2.448958,2.971288 -2.794351,2.495077 -5.559227,3.286234 -10.958493,3.135723 l -3.046685,-0.08492 -1.876996,-0.797183 c -2.957021,-1.255888 -5.469026,-1.406412 -8.84035,-0.529738 -3.289246,0.855329 -5.603372,2.468568 -7.900307,5.507522 -3.098417,4.099346 -3.957256,8.443472 -2.767833,14.000094 0.44395,2.074014 1.359026,4.552955 2.075969,5.623818 1.018334,1.52104 3.211873,2.951344 5.227384,3.408539 2.309686,0.523925 5.687115,-0.24424 7.843203,-1.783873 1.267335,-0.90499 2.675604,-2.791816 3.30744,-4.431368 0.795798,-2.065007 1.044747,-3.656762 0.982943,-6.284817 -0.04976,-2.115846 -0.07908,-2.287021 -0.629723,-3.677405 -0.661606,-1.67056 -2.036286,-3.419071 -3.18932,-4.05664 -0.990938,-0.547938 -4.10017,-0.6984 -5.180197,-0.250674 -1.556983,0.645444 -2.540787,2.205335 -2.54064,4.028342 1.06e-4,1.26121 0.149181,1.732173 0.913581,2.886144 0.690453,1.042355 0.873892,1.823305 0.653535,2.782282 -0.670887,2.919614 -3.812023,3.519834 -5.543035,1.059207 -0.736957,-1.047591 -1.073689,-2.107358 -1.077599,-3.391436 -0.01209,-3.962555 2.879056,-8.02181 6.625573,-9.302571 0.749768,-0.256308 1.548115,-0.335377 3.297798,-0.326609 1.975857,0.0098 2.532524,0.08429 3.862742,0.51619 1.90711,0.619216 3.226605,1.231082 5.050129,2.341842 1.679253,1.022876 2.390885,1.243872 4.025195,1.25005 1.532751,0.0061 2.454255,-0.193864 5.29945,-1.14827 1.227379,-0.411724 2.508615,-0.806817 2.847208,-0.877993 l 0.615613,-0.129424 -0.619727,0.570117 c -0.692419,0.636996 -1.313048,1.53654 -3.060037,4.435249 -2.137092,3.546005 -3.716126,5.094106 -5.458617,5.351668 l -0.724598,0.107115 -0.183688,1.466618 c -0.240496,1.920295 -1.128776,4.171134 -2.263513,5.735592 l -0.867203,1.195597 2.418365,0.0529 2.418353,0.05301 -1.52408,0.802379 c -3.645293,1.919114 -8.60863,2.976157 -14.990604,3.19258 -1.142734,0.03882 -2.604905,0.01034 -3.249271,-0.06429 z"
       id="path849" />
  </g>
</svg>
